<svg xmlns="http://www.w3.org/2000/svg" width="200" height="200" viewBox="0 0 200 200" preserveAspectRatio="xMidYMid meet"><path fill="#a8389f" d="M58 16L100 16L100 58ZM142 16L142 58L100 58ZM142 184L100 184L100 142ZM58 184L58 142L100 142ZM16 58L58 58L58 100ZM184 58L184 100L142 100ZM184 142L142 142L142 100ZM16 142L16 100L58 100Z"/><path fill="#d175c9" d="M23 37a14,14 0 1,1 28,0a14,14 0 1,1 -28,0M149 37a14,14 0 1,1 28,0a14,14 0 1,1 -28,0M149 163a14,14 0 1,1 28,0a14,14 0 1,1 -28,0M23 163a14,14 0 1,1 28,0a14,14 0 1,1 -28,0M58 58L100 58L100 79L58 79ZM58 79L79 79L79 100L58 100ZM100 79L79 100L79 79ZM142 58L142 100L121 100L121 58ZM121 58L121 79L100 79L100 58ZM121 100L100 79L121 79ZM142 142L100 142L100 121L142 121ZM142 121L121 121L121 100L142 100ZM100 121L121 100L121 121ZM58 142L58 100L79 100L79 142ZM79 142L79 121L100 121L100 142ZM79 100L100 121L79 121Z"/></svg>